                <svg
                        xmlns="http://www.w3.org/2000/svg"
                        xml:space="preserve"
                        fill-rule="evenodd"
                        stroke-linejoin="round"
                        stroke-miterlimit="2"
                        clip-rule="evenodd"
                        viewBox="0 0 160 160"
			fill="currentColor"
                >
                        <path
                                d="M144.21 76.706c-1.701-8.804-6.068-19.931-10.104-24.464-.985-1.104-1.98-1.873-2.725-2.221-.478-.225-.899-.3-1.22-.276-.442.036-.78.225-1.02.525-.19.237-.333.57-.333 1.033 0 .105.035.354.158.705.272.775 1.038 2.515 1.937 4.37 3.066 6.322 4.262 10.728 6.653 24.29 3.02 17.13 2.963 21.99-.738 29.188-2.92 5.676-14.185 18.385-19.916 22.473-1.784 1.272-9.932 4.595-22.108 9.065-6.486 2.377-12.119 3.142-20.822 2.848-8.279-.282-12.276-1.107-18.72-3.887-9.931-4.286-18.83-12.352-25.588-23.157-2.727-4.362-5.355-7.748-9.354-12.031-2.98-7.684-4.62-16.07-4.62-24.85a68.74 68.74 0 0 1 3.616-22.084 167.62 167.62 0 0 0 3.918-7.576c2.255-4.661 3.467-6.492 6.364-9.578 1.675-1.783 3.1-3.512 3.606-4.325.082-.132.146-.255.194-.366l.026-.018c1.348-.874 6.553-3.377 10.651-4.806 1.66-.576 3.122-.99 4.03-.99 2.71 0 10.605-.37 17.543-.826 22.232-1.456 32.411.444 46.415 8.768 3.7 2.2 5.551 3.16 6.422 3.299.56.09.943-.04 1.216-.229.371-.26.641-.735.641-1.491 0-.177-.038-.406-.15-.67-.132-.309-.402-.741-.797-1.254-1.912-2.48-7.03-7.315-10.42-9.65-7.587-5.23-12.847-6.553-29.364-7.184-5.687-.216-10.583-.48-11.66-.627a1.802 1.802 0 0 0-.076-.012l.066.024a4.32 4.32 0 0 0-.674-.165c-1.125-.18-3.986-.49-7.2-.768-2.379-.204-4.429-.325-6.364-.334a62.091 62.091 0 0 1 8.124-3.118h.003c9.664-.925 15.535-.865 22.703.228 20.369 3.107 33.31 10.16 46.88 25.562 2.618 2.971 4.058 4.721 5.253 6.645 4.363 8.402 7.036 17.875 7.554 27.934Zm-16.021 17.736c-.513.531-2.31 3.518-3.965 6.652-3.796 7.183-7.023 11.079-13.907 16.797-5.683 4.721-8.946 7.543-10.578 9.17-.806.804-1.249 1.369-1.434 1.732-.351.681-.113 1.143.01 1.315.197.27.508.489 1.009.42.129-.021.328-.075.568-.222.218-.135.553-.403.974-.799.784-.735 4.97-3.833 9.298-6.892 4.597-3.244 9.604-7.29 11.647-9.404 4.28-4.424 8.47-10.736 9.692-14.549.577-1.8.702-3.175.534-3.974-.13-.621-.434-1.023-.782-1.248-.37-.24-.835-.334-1.394-.162-.446.135-1.024.492-1.672 1.164ZM70.776 41.761c-4.838.828-10.58 2.668-15.415 4.94-14.738 6.928-23.89 21.807-23.878 38.88.01 13.643 6.3 25.955 19.753 38.418 2.834 2.627 4.461 3.971 4.812 4.121.317.136.56.1.701.063a.984.984 0 0 0 .62-.465c.096-.162.278-.534.008-1.053-.203-.39-1.619-2.017-4.305-4.821-6.164-6.426-9.844-11.625-12.614-17.848-2.462-5.532-2.98-8.044-2.97-14.377.015-10.83 4.02-20.358 12.024-28.654 11.386-11.8 23.706-15.735 38.855-12.376 4.208.934 6.668 1.225 7.66 1.006.631-.138.964-.462 1.13-.787.148-.288.2-.63.083-1.03-.087-.296-.291-.639-.653-.98-.522-.49-1.465-1.06-2.698-1.63-3.778-1.739-10.421-3.612-14.795-3.897-2.252-.147-5.833.063-8.318.49ZM63.46 111.78c0 .23.061.5.226.795.192.34.577.771 1.127 1.228 1.507 1.245 4.368 2.842 6.71 3.59 2.096.672 4.852 1.05 7.085 1.104 1.696.042 3.11-.132 3.807-.444.736-.33 1.003-.861 1.003-1.36 0-.621-.245-1.083-.859-1.408-.423-.225-1.209-.366-2.53-.366-3.043 0-7.108-1.155-10.605-2.983-1.603-.838-2.792-1.342-3.583-1.534-.49-.12-.878-.13-1.162-.081a1.44 1.44 0 0 0-.893.501 1.45 1.45 0 0 0-.326.958Zm39.329-59.499c-.11.183-.259.64.023 1.27.333.744 1.51 2.45 3 4.268 7 8.534 8.59 12.07 8.917 20.18.26 6.457-.264 9.66-2.346 13.922-1.869 3.827-3.676 6.126-10.365 13.321-2.877 3.095-4.625 5.214-5.284 6.403-.305.549-.414.987-.414 1.284 0 .31.09.562.225.76.232.345.67.642 1.42.567.65-.066 1.832-.52 3.516-1.402 6.356-3.332 12.291-8.747 15.692-14.303 3.547-5.793 4.658-14.95 2.894-24.517-1.414-7.675-6.095-15.879-11.626-20.408-1.71-1.402-2.876-2.083-3.639-2.23-.941-.18-1.57.14-2.013.885Zm-26.452 10.37c-6.201 2.225-9.942 5.68-12.935 11.983-1.557 3.275-1.688 3.897-1.688 9.218 0 5.211.156 5.995 1.556 8.966 2.807 5.965 10.112 11.824 15.609 12.586 1.2.168 1.969.045 2.336-.15.479-.255.683-.633.713-1.063.024-.342-.104-.834-.598-1.356-.574-.61-1.827-1.468-3.73-2.444-4.282-2.194-7.672-5.291-9.273-8.542-1.587-3.218-1.63-9.017-.092-12.253 2.296-4.83 9.402-10.253 14.484-11.043 1.833-.285 3.895.444 5.593 1.675 1.704 1.234 3.06 2.987 3.397 4.848.959 5.3-4.012 10.373-10.022 10.373-2.687 0-4.593-1.254-5.324-3.073-.742-1.843-.261-4.182 1.637-6.235.57-.618.953-1.077 1.151-1.372.17-.252.25-.453.283-.582.14-.567-.108-.906-.375-1.113-.164-.127-.684-.385-1.441.018-1.554.828-3.515 3.572-4.174 5.955-.652 2.356-.091 4.742 1.325 6.753 2.024 2.876 5.828 4.974 10.144 4.971 8.903-.009 15.805-8.278 13.984-16.713-1.96-9.074-13.163-14.774-22.56-11.406Zm-.067-11.258c-1.616.264-5.163 1.633-8.207 3.188-4.604 2.35-5.938 3.355-9.993 7.57-7.953 8.257-10.935 15.206-10.433 24.022.185 3.247.837 6.657 1.557 8.638.402 1.105.906 1.82 1.304 2.074h.001c.26.166.521.199.773.15.241-.047.603-.198.824-.693.202-.453.395-2.014.398-4.046.01-10.47 2.943-17.34 10.905-25.634 5.054-5.265 9.758-7.459 17.143-8 6.253-.456 11.606 1.282 16.32 5.31 2.524 2.159 4.866 6.085 6.21 9.84.872 2.437 1.333 4.8 1.081 6.538-.708 4.895-4.2 9.695-11.549 16.208-1.187 1.05-1.864 2.005-2.073 2.66-.219.69-.068 1.227.26 1.609.272.315.744.582 1.49.582.542 0 1.552-.351 2.76-1.006 2.422-1.317 5.866-3.818 7.83-5.838 6.575-6.762 8.108-16.506 4.124-26.82-1.563-4.049-5.031-8.35-8.28-10.307-2.916-1.756-10.136-4.47-14.873-5.793-2.222-.618-3.956-.892-4.593-.756-.153.033-1.493.26-2.98.504ZM59.822 33.545c-19.925 2.99-33.579 13.72-39.635 31.079-2.807 8.047-3.278 16.854-1.433 27.426l.631 3.617a.997.997 0 0 0 1.048.825.998.998 0 0 0 .937-.948l.305-6.466c.374-7.94 1.773-13.17 5.768-21.654 3.345-7.104 7.301-12.573 12.094-16.68 6.408-5.493 10.888-7.369 23.763-10.091 10.264-2.17 15.368-2.323 24.28-.708 2.78.504 5.256.822 6.232.831.675.006 1.045-.25 1.151-.36.286-.294.414-.622.434-.955.031-.498-.237-1.161-1.068-1.759-1.536-1.107-5.573-2.506-11.201-3.722-6.772-1.461-15.377-1.627-23.306-.435ZM123.71 66.03c2.509 5.91 3.207 8.116 4.19 13.276.502 2.641 1.082 4.896 1.427 5.691.332.768.916.9 1.121.9.276 0 .91-.159 1.118-1.032.173-.73.25-2.825.153-5.562-.173-4.92-.44-6.282-1.661-9.029-1.29-2.9-2.712-5.298-3.756-6.48-.697-.79-1.379-1.093-1.806-1.093-.45 0-.76.144-.973.33-.254.228-.457.561-.418 1.117.024.345.204.933.605 1.882ZM108.355 48.1c0 .168.058.474.292.84.369.577 1.405 1.723 2.644 2.966 1.807 1.81 4.045 3.84 5.123 4.58.512.352.928.457 1.119.457.684 0 1.128-.243 1.396-.553.295-.339.46-.834.3-1.51-.152-.636-.697-1.611-1.704-2.875-1.404-1.768-3.687-3.569-5.426-4.523-.866-.478-1.627-.745-2.13-.78-.585-.043-.998.158-1.258.44a1.367 1.367 0 0 0-.356.958ZM67.933 20.725l.105.042c.034.015.064.03.08.04l-.185-.082Z"
                        />
                </svg>

