<svg fill="currentColor" height="800px" width="800px" version="1.1" xmlns="http://www.w3.org/2000/svg" xmlns:xlink="http://www.w3.org/1999/xlink" 
	 viewBox="0 0 297 297" xml:space="preserve">
<g>
	<path d="M107.184,64.421c0-5.775-4.682-10.457-10.457-10.457H89.93v-6.797c0-3.621,4.398-6.797,9.411-6.797h98.296
		c5.013,0,9.411,3.176,9.411,6.797v6.797h-6.797c-5.775,0-10.457,4.682-10.457,10.457v0.386h55.422v-0.386
		c0-5.775-4.682-10.457-10.457-10.457h-6.797v-6.797c0-15.28-13.604-27.711-30.325-27.711H99.342
		c-16.721,0-30.325,12.431-30.325,27.711v6.797h-6.797c-5.775,0-10.457,4.682-10.457,10.457v0.386h55.422V64.421z"/>
	<path d="M13.625,107.023L0.332,158.535c-0.808,3.132-0.122,6.461,1.859,9.017c1.98,2.557,5.032,4.053,8.267,4.053h49.1
		l17.795-92.159H47.579C31.737,79.447,16.887,91.534,13.625,107.023z"/>
	<path d="M296.476,157.868l-13.121-50.845c-3.263-15.489-18.113-27.576-33.955-27.576h-29.773l17.795,92.159h49.1
		c0,0,0.008-0.001,0.013-0.001c0,0,0.005,0,0.007,0.001c5.776,0,10.457-4.682,10.457-10.457
		C297,160.003,296.816,158.9,296.476,157.868z"/>
	<path d="M10.457,186.245c-2.228,0-4.429-0.313-6.55-0.892l10.662,63.684c2.359,15.996,16.83,28.508,33.01,28.508h27.092
		l-14.87-91.299H10.457z"/>
	<path d="M286.893,186.245h-0.37h-49.344l-14.87,91.299H249.4c16.181,0,30.652-12.512,33.01-28.51l10.657-63.651
		c-1.952,0.526-3.998,0.824-6.106,0.858L286.893,186.245z"/>
	<path d="M96.727,79.447l-17.795,92.159h41.847v-27.711c0-5.775,4.682-10.457,10.457-10.457h34.508
		c5.775,0,10.457,4.682,10.457,10.457v27.711h41.847l-17.795-92.159H96.727z"/>
	<path d="M176.201,195.657c0,5.775-4.682,10.457-10.457,10.457h-34.508c-5.775,0-10.457-4.682-10.457-10.457v-9.411H80.991
		l14.87,91.299h107.183l14.87-91.299h-41.712V195.657z"/>
</g>
</svg>
