<svg xmlns="http://www.w3.org/2000/svg" viewBox="0 0 32 32">
	<g>
		<path class="ring-1" fill="currentColor" d="M16,2A13.89,13.89,0,0,0,8.41,4.23,3,3,0,1,0,9,6.28,11.86,11.86,0,0,1,16,4,12,12,0,1,1,4.92,11.39a1,1,0,0,0-1.85-.78A14,14,0,1,0,16,2ZM6,7A1,1,0,1,1,7,6,1,1,0,0,1,6,7Z"/>
		<path class="ring-2" fill="currentColor" d="M22.65,11.56a1,1,0,0,0,1.67-1.12,10,10,0,1,0,1,9.26,3,3,0,1,0-2.25.12,8,8,0,1,1-.38-8.26ZM24,16a1,1,0,1,1-1,1A1,1,0,0,1,24,16Z"/>
	</g>
	<circle cx="16" cy="16" r="4" fill="currentColor" class="core" />
</svg>

